<svg xmlns="http://www.w3.org/2000/svg" width="1672" height="1672" viewBox="0 0 1254 1254"><defs><linearGradient id="a" x1="0" x2="1" y1="0" y2="1"><stop offset="0%" stop-color="#7de3ff"/><stop offset="50%" stop-color="#00a3ff"/><stop offset="100%" stop-color="#0057d9"/></linearGradient></defs><g fill="url(#a)" transform="matrix(.1 0 0 -.1 0 1254)"><path d="M3794 10516c-19-14-19-37-22-960-2-936-2-946 18-966s27-20 2478-20c2369 0 2460 1 2475 18 16 17 17 98 17 964 0 903-1 946-18 961s-68 17-534 17c-486 0-516-1-531-18s-17-57-17-375v-357h-820v355c0 342-1 356-20 375s-33 20-533 20c-484 0-515-1-530-18-15-16-17-60-19-373l-3-354-422-3-423-2v358c0 335-1 360-18 375s-69 17-538 17c-433 0-523-2-540-14"/><path d="M4200 8232c-26-21-17 52-130-1112-27-289-59-615-70-725-40-397-157-1662-214-2305-33-383-33-412-2-432 6-4 295-8 642-8 601 0 632 1 648 18 19 21 49 347 302 3207 17 201 30 297 40 313l14 22h1680l14-22c9-16 21-103 35-263 28-335 129-1458 216-2423 62-687 76-817 91-833 16-18 41-19 649-19 621 0 632 0 650 20s18 32-14 398c-59 689-168 1876-226 2471-78 798-117 1189-140 1426-23 225-27 252-46 268-20 16-133 17-2069 17-1972 0-2049-1-2070-18"/><path d="M5722 6910c-29-13-38-38-46-140-4-47-27-314-51-595-25-280-56-645-70-810-42-509-104-1230-125-1448-20-212-18-248 15-261 9-3 382-6 829-6 669 0 815 2 831 14 22 16 22 31-5 326-11 118-31 350-45 515s-50 588-81 940c-30 352-70 820-89 1039-27 321-37 402-50 415-14 14-75 16-553 18-328 2-546-1-560-7"/><path d="M3176 3308c-14-20-16-97-16-633s2-613 16-633l15-22h3073c2964 0 3073 1 3089 18 15 17 17 76 17 639 0 588-1 621-18 636-17 16-246 17-3090 17H3191z"/></g></svg>